<svg xmlns="http://www.w3.org/2000/svg" style="display: none;">
	<symbol id="icon-at" fill="none" viewBox="0 0 24 24" stroke-width="1.5" stroke="currentColor" class="size-6">
		<path stroke-linecap="round" stroke-linejoin="round" d="M16.5 12a4.5 4.5 0 1 1-9 0 4.5 4.5 0 0 1 9 0Zm0 0c0 1.657 1.007 3 2.25 3S21 13.657 21 12a9 9 0 1 0-2.636 6.364M16.5 12V8.25" />
	</symbol>

	<symbol id="icon-wrench" fill="none" viewBox="0 0 24 24" stroke-width="1.5" stroke="currentColor" class="size-6">
		<path stroke-linecap="round" stroke-linejoin="round" d="M21.75 6.75a4.5 4.5 0 0 1-4.884 4.484c-1.076-.091-2.264.071-2.95.904l-7.152 8.684a2.548 2.548 0 1 1-3.586-3.586l8.684-7.152c.833-.686.995-1.874.904-2.95a4.5 4.5 0 0 1 6.336-4.486l-3.276 3.276a3.004 3.004 0 0 0 2.25 2.25l3.276-3.276c.256.565.398 1.192.398 1.852Z" />
		<path stroke-linecap="round" stroke-linejoin="round" d="M4.867 19.125h.008v.008h-.008v-.008Z" />
	</symbol>

	<symbol id="icon-code" fill="none" viewBox="0 0 24 24" stroke-width="1.5" stroke="currentColor" class="size-6">
		<path stroke-linecap="round" stroke-linejoin="round" d="M17.25 6.75 22.5 12l-5.25 5.25m-10.5 0L1.5 12l5.25-5.25m7.5-3-4.5 16.5" />
	</symbol>

	<symbol id="icon-user" fill="none" viewBox="0 0 24 24" stroke-width="1.5" stroke="currentColor" class="size-6">
		<path stroke-linecap="round" stroke-linejoin="round" d="M17.982 18.725A7.488 7.488 0 0 0 12 15.75a7.488 7.488 0 0 0-5.982 2.975m11.963 0a9 9 0 1 0-11.963 0m11.963 0A8.966 8.966 0 0 1 12 21a8.966 8.966 0 0 1-5.982-2.275M15 9.75a3 3 0 1 1-6 0 3 3 0 0 1 6 0Z" />
	</symbol>
</svg>

